<?xml version="1.0" standalone="no"?><!DOCTYPE svg PUBLIC "-//W3C//DTD SVG 1.1//EN" "http://www.w3.org/Graphics/SVG/1.1/DTD/svg11.dtd"><svg t="1545209094378" class="icon" style="" viewBox="0 0 1024 1024" version="1.1" xmlns="http://www.w3.org/2000/svg" p-id="3673" xmlns:xlink="http://www.w3.org/1999/xlink" width="200" height="200"><defs><style type="text/css"></style></defs><path d="M510.185 513.428m-446.172 0a446.172 446.172 0 1 0 892.344 0 446.172 446.172 0 1 0-892.344 0Z" fill="#76C2AF" p-id="3674"></path><path d="M731.019 485.542H621.728V318.227c0-30.802-24.969-55.772-55.772-55.772H454.413c-30.802 0-55.772 24.969-55.772 55.772v167.315H289.35c-37.957 0-48.561 26.004-23.567 57.788l198.958 253.003c24.994 31.783 65.893 31.783 90.888 0L754.586 543.33c24.994-31.784 14.39-57.788-23.567-57.788z" fill="#231F20" p-id="3675"></path><path d="M398.642 290.342c0-30.802 24.97-55.772 55.772-55.772h111.543c30.802 0 55.772 24.97 55.772 55.772v334.629c0 30.802-24.97 55.772-55.772 55.772H454.413c-30.802 0-55.772-24.97-55.772-55.772V290.342z" fill="#FFFFFF" p-id="3676"></path><path d="M731.02 457.656c37.956 0 48.561 26.005 23.567 57.788L555.629 768.448c-24.994 31.784-65.894 31.784-90.888 0L265.783 515.445c-24.994-31.784-14.389-57.788 23.567-57.788h441.67z" fill="#FFFFFF" p-id="3677"></path></svg>