<?xml version="1.0" standalone="no"?><!DOCTYPE svg PUBLIC "-//W3C//DTD SVG 1.1//EN" "http://www.w3.org/Graphics/SVG/1.1/DTD/svg11.dtd"><svg t="1546869129956" class="icon" style="" viewBox="0 0 1024 1024" version="1.1" xmlns="http://www.w3.org/2000/svg" p-id="5957" xmlns:xlink="http://www.w3.org/1999/xlink" width="200" height="200"><defs><style type="text/css"></style></defs><path d="M512 1002.666667c270.997333 0 490.666667-219.669333 490.666667-490.666667S782.997333 21.333333 512 21.333333 21.333333 241.002667 21.333333 512s219.669333 490.666667 490.666667 490.666667z m0 21.333333C229.226667 1024 0 794.773333 0 512S229.226667 0 512 0s512 229.226667 512 512-229.226667 512-512 512z m-181.333333-693.333333h320a42.666667 42.666667 0 0 1 42.666666 42.666666v320a42.666667 42.666667 0 0 1-42.666666 42.666667h-320a42.666667 42.666667 0 0 1-42.666667-42.666667v-320a42.666667 42.666667 0 0 1 42.666667-42.666666z m380.224 358.890666c2.432-5.333333 3.776-11.306667 3.776-17.557333v-320a42.666667 42.666667 0 0 0-42.666667-42.666667h-320c-6.250667 0-12.202667 1.344-17.557333 3.776A42.666667 42.666667 0 0 1 373.333333 288h320a42.666667 42.666667 0 0 1 42.666667 42.666667v320a42.666667 42.666667 0 0 1-25.109333 38.890666z m-149.888-133.333333a11.52 11.52 0 0 0 8.192-3.349333l39.872-39.893334a69.418667 69.418667 0 0 0 0-98.048 69.418667 69.418667 0 0 0-98.069334 0l-39.872 39.893334a11.562667 11.562667 0 1 0 16.341334 16.341333l39.872-39.893333a46.272 46.272 0 0 1 65.386666 0 46.293333 46.293333 0 0 1 0 65.386666l-39.872 39.872a11.52 11.52 0 0 0 8.149334 19.712zM421.333333 672a69.12 69.12 0 0 0 49.002667-20.288l40.618667-40.618667a11.562667 11.562667 0 0 0-16.341334-16.32l-40.576 40.597334a46.293333 46.293333 0 0 1-65.408 0 46.250667 46.250667 0 0 1 0-65.365334l40.597334-40.597333a11.562667 11.562667 0 1 0-16.341334-16.341333l-40.597333 40.597333a69.418667 69.418667 0 0 0 0 98.048 69.12 69.12 0 0 0 49.045333 20.288z m34.688-92.437333a11.52 11.52 0 0 0 8.170667-3.413334l69.205333-69.205333a11.52 11.52 0 1 0-16.32-16.32l-69.184 69.226667a11.52 11.52 0 0 0 8.128 19.712z" fill="#5E7DAA" p-id="5958"></path></svg>