<?xml version="1.0" standalone="no"?><!DOCTYPE svg PUBLIC "-//W3C//DTD SVG 1.1//EN" "http://www.w3.org/Graphics/SVG/1.1/DTD/svg11.dtd"><svg t="1545209232110" class="icon" style="" viewBox="0 0 1024 1024" version="1.1" xmlns="http://www.w3.org/2000/svg" p-id="3927" xmlns:xlink="http://www.w3.org/1999/xlink" width="200" height="200"><defs><style type="text/css"></style></defs><path d="M511.982 507.295m-447.77 0a447.77 447.77 0 1 0 895.54 0 447.77 447.77 0 1 0-895.54 0Z" fill="#4F5D73" p-id="3928"></path><path d="M288.097 563.266c0 15.456-12.53 27.986-27.986 27.986-15.456 0-27.986-12.53-27.986-27.986V535.28c0-15.456 12.53-27.986 27.986-27.986 15.456 0 27.986 12.53 27.986 27.986v27.986z" fill="#C75C5C" p-id="3929"></path><path d="M400.04 451.324c0 15.456-12.53 27.986-27.986 27.986-15.456 0-27.986-12.53-27.986-27.986v-27.986c0-15.456 12.53-27.986 27.986-27.986 15.456 0 27.986 12.53 27.986 27.986v27.986zM679.901 451.324c0 15.456-12.53 27.986-27.986 27.986-15.456 0-27.986-12.53-27.986-27.986v-27.986c0-15.456 12.53-27.986 27.986-27.986 15.456 0 27.986 12.53 27.986 27.986v27.986z" fill="#F5CF87" p-id="3930"></path><path d="M735.867 563.266c0 15.456 12.53 27.986 27.986 27.986 15.456 0 27.986-12.53 27.986-27.986V535.28c0-15.456-12.53-27.986-27.986-27.986-15.456 0-27.986 12.53-27.986 27.986v27.986z" fill="#76C2AF" p-id="3931"></path><path d="M511.982 515.616l237.878 67.128c40.448 12.062 41.978-5.759 41.978-33.564v16.782c0-27.805 1.312-46.937-24.487-62.67L511.982 381.36 256.613 503.291c-25.799 15.733-24.487 34.865-24.487 62.67V549.18c0 27.805 1.53 45.626 41.978 33.564l237.878-67.128z" fill="#231F20" p-id="3932"></path><path d="M511.982 487.63l237.878 67.128c40.448 12.062 41.978-5.759 41.978-33.564v16.782c0-27.805 1.312-46.937-24.487-62.67L511.982 353.374 256.613 475.306c-25.799 15.733-24.487 34.865-24.487 62.67v-16.782c0 27.805 1.53 45.626 41.978 33.564l237.878-67.128z" fill="#E0E0D1" p-id="3933"></path><path d="M791.809 526.355c0.004 0.451 0.026 0.863 0.029 1.319v-6.48c0 1.763-0.007 3.483-0.029 5.161zM791.838 527.673v10.302c0-3.577 0.017-7 0-10.302z" fill="#E0E0D1" p-id="3934"></path><path d="M511.982 353.374l-70.239 33.537 6.112 118.815 64.127-18.097 64.127 18.097 6.112-118.815z" fill="#231F20" p-id="3935"></path><path d="M553.96 669.869c0 22.269-4.802 40.321-27.986 40.321h-27.986c-23.184 0-27.986-18.052-27.986-40.321l-13.993-375.78c0-22.269 32.787-94.636 55.971-94.636 23.184 0 55.971 72.367 55.971 94.636l-13.991 375.78z" fill="#E0E0D1" p-id="3936"></path><path d="M665.787 743.026l-153.805-95.803-153.805 95.803c-16.125 12.828-14.109 32.043-14.109 54.714 0 0 2.7 25.555 27.98 15.721l139.934-54.296 139.934 54.296c25.28 9.834 27.98-15.721 27.98-15.721 0-22.67 2.016-41.886-14.109-54.714z" fill="#231F20" p-id="3937"></path><path d="M665.787 715.041l-153.805-95.803-153.805 95.803c-16.125 12.828-14.109 32.043-14.109 54.714 0 0 2.7 25.555 27.98 15.721l139.934-54.296 139.934 54.296c25.28 9.834 27.98-15.721 27.98-15.721 0-22.671 2.016-41.886-14.109-54.714z" fill="#E0E0D1" p-id="3938"></path><path d="M539.968 773.158c0 15.456-12.53 27.986-27.986 27.986-15.456 0-27.986-12.53-27.986-27.986v-69.964c0-15.456 12.53-27.986 27.986-27.986 15.456 0 27.986 12.53 27.986 27.986v69.964z" fill="#231F20" p-id="3939"></path><path d="M539.968 745.173c0 15.456-12.53 27.986-27.986 27.986-15.456 0-27.986-12.53-27.986-27.986v-69.964c0-15.456 12.53-27.986 27.986-27.986 15.456 0 27.986 12.53 27.986 27.986v69.964z" fill="#E0E0D1" p-id="3940"></path><path d="M511.982 283.41c16.276 0 30.444-17.108 37.974-42.434-11.29-21.924-25.915-41.522-37.974-41.522-12.059 0-26.684 19.599-37.974 41.522 7.53 25.326 21.698 42.434 37.974 42.434z" fill="#77B3D4" p-id="3941"></path></svg>